<?xml version='1.0' encoding='iso-8859-1'?>
<svg version="1.1" xmlns="http://www.w3.org/2000/svg" viewBox="0 0 99.893 99.893" xmlns:xlink="http://www.w3.org/1999/xlink" enable-background="new 0 0 99.893 99.893">
  <g>
    <path d="M49.946,0C22.406,0,0,22.406,0,49.946s22.406,49.946,49.946,49.946s49.946-22.406,49.946-49.946S77.486,0,49.946,0z    M49.946,97.893C23.509,97.893,2,76.384,2,49.946S23.509,2,49.946,2s47.946,21.509,47.946,47.946S76.384,97.893,49.946,97.893z"/>
    <path d="m29.864,42.656c-4.161,0-7.547,3.386-7.547,7.547s3.386,7.547 7.547,7.547 7.547-3.386 7.547-7.547-3.386-7.547-7.547-7.547zm0,13.094c-3.059,0-5.547-2.488-5.547-5.547s2.488-5.547 5.547-5.547 5.547,2.488 5.547,5.547-2.488,5.547-5.547,5.547z"/>
    <path d="m50.268,42.231c-4.161,0-7.547,3.386-7.547,7.547s3.386,7.547 7.547,7.547 7.547-3.386 7.547-7.547-3.386-7.547-7.547-7.547zm0,13.094c-3.059,0-5.547-2.488-5.547-5.547s2.488-5.547 5.547-5.547 5.547,2.488 5.547,5.547-2.489,5.547-5.547,5.547z"/>
    <path d="m69.774,42.231c-4.161,0-7.547,3.386-7.547,7.547s3.386,7.547 7.547,7.547 7.547-3.386 7.547-7.547-3.385-7.547-7.547-7.547zm-5.546,7.547c0-3.059 2.488-5.547 5.547-5.547s5.547,2.488 5.547,5.547-2.488,5.547-5.547,5.547-5.547-2.488-5.547-5.547z"/>
  </g>
</svg>
